<?xml version="1.0" encoding="UTF-8"?><svg id="Layer_1" xmlns="http://www.w3.org/2000/svg" viewBox="0 0 800 800"><defs><style>.cls-1{fill:#f58028;stroke-width:0px;}</style></defs><path class="cls-1" d="M777.01,347.23l-20.95-.04c-.75-1.78-1.29-3.51-1.58-5.18-1.14-6.5.76-14.91,2.77-23.82,2.78-12.34,5.92-26.33,1.19-39.32-4.82-13.26-16.35-22.04-26.54-29.78-7.13-5.43-13.89-10.56-17.07-16.06-3.25-5.61-4.34-14.09-5.51-23.08-1.63-12.6-3.47-26.88-12.45-37.56-8.99-10.71-22.76-15-34.9-18.79-8.64-2.69-16.78-5.23-21.72-9.38-4.9-4.12-8.8-11.68-12.93-19.7-5.83-11.33-12.45-24.18-24.6-31.2-12.03-6.97-26.41-6.3-39.07-5.72-9.08.42-17.65.81-23.79-1.43-5.91-2.16-12.11-7.88-18.68-13.94-9.42-8.69-20.1-18.55-34.08-21-13.51-2.36-26.68,3.14-38.31,8.01-8.46,3.54-16.47,6.88-23.16,6.88s-14.69-3.35-23.16-6.88c-11.62-4.86-24.79-10.37-38.31-8.01-13.97,2.45-24.65,12.31-34.07,21-6.57,6.06-12.77,11.78-18.68,13.94-6.15,2.24-14.72,1.84-23.79,1.43-12.68-.59-27.04-1.25-39.07,5.71-12.15,7.03-18.77,19.89-24.61,31.22-4.12,8.02-8.02,15.58-12.92,19.7-4.94,4.15-13.1,6.69-21.72,9.38-12.15,3.79-25.93,8.07-34.92,18.78-8.97,10.68-10.81,24.97-12.44,37.57-1.17,8.98-2.26,17.48-5.52,23.08-3.18,5.51-9.93,10.63-17.07,16.06-10.18,7.74-21.72,16.52-26.54,29.76-4.74,13.01-1.58,27,1.2,39.34,2.01,8.9,3.9,17.31,2.75,23.82-.72,4.14-3.03,8.71-5.94,13.56-8.86-.06-21.9.44-36.15,3.16-9.56,1.83-16.52,2.78-22.94,3.36-4.29.38-8.16.4-12.24.48-.09,0-1.34.05-2.74.67-.93.42-.8.25-1.06.75-.99,1.79-.37,2.99-.34,3.06.72,2.37,2.66,2.7,4.81,3.08,4.1.73,5.3,1.16,12.08,2.26,7.64,1.24,15.01,2.83,22.38,4.02,14.7,2.29,29.11,4.31,42.51,7.51,13.3,3.18,25.91,7.58,33.99,14.05,4.03,3.22,6.89,6.6,8.71,10.59.96,1.98,1.78,4.08,2.29,6.44.53,2.31.83,5.06.97,7.26.03,1.77-.16,4.1-.61,5.73-.42,1.73-1.07,3.11-1.92,4.48-1.59,2.77-5.01,5.51-9.81,7.99-9.75,4.96-23.48,7.65-37.25,9.57-13.95,1.93-28.55,2.98-43.39,4.34-7.44.75-14.94,1.39-22.53,2.56-3.79.61-7.64,1.04-11.45,1.89-1.92.44-5.18.39-5.63,1.98-.42,1.46-.66,1.81.44,2.75.76.66,2.27.54,5.4.87,3.65.37,7.21,1.5,10.82,2.41,7.24,1.82,14.53,3.5,21.91,5.09,14.76,3.11,29.84,5.49,45.55,6.25.06,0,.11,0,.18.01-.25,1.19-.52,2.37-.8,3.59-2.78,12.35-5.94,26.34-1.2,39.34,4.82,13.26,16.37,22.02,26.54,29.76,7.15,5.43,13.89,10.57,17.07,16.06,3.26,5.62,4.34,14.11,5.51,23.1,1.64,12.6,3.49,26.88,12.45,37.56,8.99,10.71,22.77,15,34.92,18.79,8.62,2.69,16.77,5.23,21.71,9.37,4.91,4.13,8.8,11.69,12.93,19.7,5.85,11.34,12.46,24.2,24.61,31.22,12.03,6.96,26.39,6.3,39.06,5.72,9.08-.42,17.65-.81,23.8,1.43,5.91,2.15,12.11,7.87,18.68,13.93,9.42,8.7,20.1,18.55,34.07,21,13.52,2.37,26.7-3.13,38.31-7.99,8.47-3.54,16.48-6.88,23.16-6.88s14.7,3.35,23.16,6.88c9.71,4.05,20.48,8.56,31.66,8.56,2.2,0,4.43-.18,6.65-.57,13.98-2.45,24.66-12.3,34.08-21,6.57-6.06,12.77-11.78,18.68-13.93,6.14-2.24,14.71-1.84,23.79-1.43,12.68.58,27.04,1.25,39.06-5.72,12.16-7.02,18.78-19.88,24.61-31.22,4.13-8.01,8.03-15.57,12.93-19.7,4.94-4.14,13.08-6.68,21.72-9.37,12.15-3.79,25.91-8.08,34.9-18.79,8.98-10.67,10.82-24.95,12.45-37.56,1.16-8.99,2.26-17.48,5.51-23.1,3.18-5.49,9.94-10.62,17.07-16.06,10.18-7.74,21.72-16.5,26.54-29.76,4.74-12.99,1.59-26.99-1.2-39.34-.18-.78-.35-1.55-.52-2.32l20,.05c7.12.01,12.91-5.75,12.92-12.87l.09-40.23.05-26.05.09-40.23c.01-7.12-5.75-12.91-12.86-12.92ZM748.59,377.39c.97,0,1.74.78,1.74,1.74v6.93c-.01.97-.8,1.74-1.76,1.74l-68.75-.15c-.96,0-1.74-.78-1.73-1.74v-6.93c.01-.96.8-1.74,1.76-1.74l68.73.15ZM125.46,359.41c-2.65-.68-5.29-1.24-7.91-1.69.13-.97.27-1.94.4-2.92.86-6.06,1.91-12.06,3.12-17.99,6.14-29.95,16.63-58.32,30.8-84.41,2.87-5.27,5.87-10.43,9.03-15.51,16.39-26.38,36.67-50.09,60.05-70.38,3.28-2.84,6.62-5.62,10.01-8.32,52.75-41.98,119.59-67.08,192.32-67.08,152.76,0,279.57,110.71,304.14,256.01l-40.66-.09c-40.11-.09-63.03,55.07-63.03,55.07h0s-57.62-.11-57.62-.11v-10.72c8.02-3.28,13.36-11.54,12.22-20.7-7.77-62.46-61.17-109.55-124.17-109.55h-60.61c-63,0-116.4,47.09-124.17,109.55-1.14,9.12,4.15,17.39,12.21,20.7v16.1h-5.53s-21.43-.03-21.43-.03l-77.6.03c-.08-.32-.15-.64-.23-.96-1.2-4.85-3.06-9.74-5.53-14.32-5.03-9.19-12.56-16.96-20.74-22.15-8.22-5.24-16.74-8.49-25.09-10.53ZM275.01,471.79c-3.64,0-6.58-2.94-6.58-6.58s2.94-6.59,6.58-6.59h297.72c3.62,0,6.57,2.97,6.57,6.59s-2.94,6.58-6.57,6.58h-297.72ZM563.71,493.17c-6.35,18.73-23.9,31.3-43.68,31.3h-192.34c-19.76,0-37.32-12.58-43.68-31.28-1.34-4.05,2.13-8.23,6.45-8.23h266.8c4.34,0,7.79,4.21,6.44,8.21ZM305.65,433.42c8.5,0,16.98-3.32,24.2-9.93,9.46-8.61,21.19-8.61,30.65,0,14.47,13.22,33.91,13.22,48.39,0,9.46-8.61,21.19-8.61,30.64,0,14.48,13.22,33.92,13.22,48.4,0,9.45-8.61,21.18-8.61,30.64,0,10.08,9.22,22.72,12.02,34.4,8.28v13.66h-258.18v-13.87c3.57,1.22,7.22,1.84,10.87,1.84ZM294.78,417.11v-24.36h258.18v24.73c-8.38,4.7-17.75,3.4-25.52-3.69-14.48-13.2-33.92-13.2-48.39,0-9.46,8.61-21.19,8.61-30.65,0-14.47-13.2-33.91-13.2-48.39,0-9.46,8.61-21.19,8.61-30.64,0-14.48-13.2-33.92-13.2-48.4,0-8.01,7.3-17.62,8.45-26.19,3.32ZM559.12,379.55h-.14c-.11.03-.21.03-.33.03h-269.56c-3.88,0-7.11-3.41-6.62-7.4,6.95-55.85,54.7-97.98,111.09-97.98h60.61c56.38,0,104.14,42.13,111.09,97.98.49,3.81-2.5,7.13-6.15,7.37ZM423.29,706.12c-143.25,0-263.67-97.35-298.38-229.3,6.34-.99,12.82-2.56,19.47-5.16,8.71-3.42,18.12-9.22,25.1-18.68,3.45-4.68,5.95-10.13,7.46-15.56.76-2.79,1.29-5.47,1.62-8.16l58.49-.03h44.55v16.2h-6.59c-10.91,0-19.75,8.85-19.75,19.76,0,9.79,7.15,17.93,16.52,19.48-1.55,4.07-1.65,8.5-.23,12.73,8.17,24.06,30.74,40.22,56.14,40.22h192.34c25.42,0,48-16.16,56.14-40.25,1.44-4.21,1.33-8.64-.21-12.7,9.18-1.5,16.52-9.5,16.52-19.48,0-10.89-8.86-19.76-19.75-19.76h-6.6v-21.58l57.57.13c.45,1.09,23.08,55.25,62.79,55.34l34.51.08c-35.59,130.65-155.37,226.72-297.7,226.72ZM750.16,454.47c0,.97-.78,1.74-1.74,1.74l-68.75-.15c-.96,0-1.73-.78-1.73-1.74v-6.93c.01-.96.8-1.74,1.76-1.74l68.73.15c.96,0,1.74.78,1.74,1.74v6.93ZM767.96,417.37c-.01,4.03-3.28,7.29-7.31,7.27l-93.06-.2c-4.03-.01-7.29-3.28-7.27-7.31,0-4.03,3.27-7.29,7.3-7.27l93.07.2c4.02.01,7.27,3.27,7.27,7.29v.03Z"/><path class="cls-1" d="M507.55,328.82c-2.57-2.57-6.73-2.57-9.3,0l-13.17,13.17c-2.57,2.57-2.57,6.75,0,9.32s6.73,2.57,9.3,0l13.17-13.17c2.59-2.57,2.59-6.75,0-9.32Z"/><path class="cls-1" d="M349.49,328.82c-2.57-2.57-6.73-2.57-9.32,0l-13.17,13.17c-2.57,2.57-2.57,6.75,0,9.32,2.59,2.57,6.75,2.57,9.32,0l13.17-13.17c2.57-2.57,2.57-6.75,0-9.32Z"/><path class="cls-1" d="M474.63,302.47c-2.57-2.57-6.75-2.57-9.32,0l-13.17,13.17c-2.57,2.57-2.57,6.75,0,9.32s6.75,2.57,9.32,0l13.17-13.17c2.57-2.57,2.57-6.75,0-9.32Z"/><path class="cls-1" d="M395.6,302.47c-2.57-2.57-6.75-2.57-9.32,0l-13.17,13.17c-2.57,2.57-2.57,6.75,0,9.32,2.57,2.57,6.75,2.57,9.32,0l13.17-13.17c2.57-2.57,2.57-6.75,0-9.32Z"/><path class="cls-1" d="M428.52,328.82c-2.57-2.57-6.73-2.57-9.3,0l-13.17,13.17c-2.59,2.57-2.59,6.75,0,9.32,2.57,2.57,6.73,2.57,9.3,0l13.17-13.17c2.59-2.57,2.59-6.75,0-9.32Z"/><path class="cls-1" d="M189.35,253.25c2.06-3.27,5.56-7.05,10.51-11.33.59-.51,1-.96,1.24-1.34.2-.32.51-1.45.94-3.4.13-.63.37-1.23.73-1.8,1.34-2.13,4.43-3.31,9.28-3.56,4.85-.25,8.8.58,11.85,2.5,1.78,1.12,2.94,2.59,3.5,4.42.55,1.83.35,3.51-.61,5.03-.8,1.27-1.7,2.14-2.71,2.62-1.01.47-3.61,1.27-7.82,2.39-5.95,1.57-10.08,4.2-12.4,7.88-1.12,1.78-1.58,3.47-1.39,5.07.19,1.6.98,2.84,2.38,3.72,2.76,1.74,6.37.62,10.82-3.36,6.07-5.35,10.12-8.67,12.17-9.95,9.03-5.62,17.36-6.02,25.01-1.22,6.76,4.25,10.55,10.49,11.36,18.7.83,8.4-1.62,17.16-7.35,26.27-2.55,4.06-5.73,8.04-9.54,11.94-3.8,3.9-6.98,6.44-9.54,7.62-1.97.88-5.05.87-9.23-.06-4.18-.92-7.89-2.4-11.13-4.44-1.56-.98-2.53-2.03-2.93-3.17-.52-1.43-.4-2.75.36-3.96.76-1.21,2.11-1.97,4.04-2.31,1.12-.23,4.34-.39,9.68-.49,2.52-.06,5.17-.99,7.95-2.81,2.78-1.82,5.03-4.09,6.75-6.82,1.48-2.35,2.24-4.53,2.28-6.54.05-2.01-.61-3.44-1.98-4.3-1.27-.8-2.72-.92-4.36-.35-1.64.56-3.66,1.88-6.07,3.95-4.28,3.64-7.77,6.28-10.45,7.91-2.69,1.63-5.58,2.91-8.69,3.84-7.6,2.22-14.22,1.56-19.87-2-2.79-1.76-5.11-4.12-6.94-7.09-1.83-2.97-2.97-6.25-3.41-9.85-1.12-8.15.73-16.06,5.56-23.74Z"/><path class="cls-1" d="M267.81,235.72l-17.66-23.74c-2.28-3.07-3.94-4.86-4.98-5.37-1.04-.51-2.68-.33-4.92.54-3.29,1.23-5.65.89-7.08-1.04-1.01-1.35-1.21-2.82-.6-4.39.61-1.57,1.99-3.16,4.16-4.78.72-.54,2.55-1.82,5.47-3.86l2.71-2.01c4.97-3.74,7.87-5.96,8.69-6.64.82-.68,3.69-3.22,8.6-7.62,1.61-1.48,3.14-2.75,4.58-3.83,4.93-3.67,10.08-5.93,15.43-6.78,9.31-1.5,16.78,1.54,22.42,9.12,4.56,6.14,5.88,12.8,3.94,19.99-1.85,6.75-5.92,12.46-12.21,17.14-1.6,1.19-3.63,2.54-6.1,4.05-1.3.83-2.1,1.35-2.4,1.58-.87.65-.94,1.47-.2,2.46l.2.27,5.82,7.17c1.13,1.4,2.2,2.28,3.19,2.64.99.36,2.49.38,4.49.06,2.74-.4,4.57.01,5.48,1.25,1.41,1.9,1.05,4.43-1.08,7.6-2.13,3.17-5.84,6.73-11.13,10.66-11.13,8.28-18.12,10.51-20.96,6.69-.67-.9-.95-1.77-.82-2.61.12-.84.74-2.37,1.84-4.59.66-1.38.7-2.64.12-3.8-.58-1.16-2.91-4.54-6.99-10.15ZM266.25,191.11l11.41,15.34c.87,1.17,1.65,1.69,2.34,1.55,1.19-.23,2.44-.83,3.76-1.82,1.99-1.48,3.24-3.28,3.77-5.4.77-3.05-.24-6.45-3.04-10.22-2.91-3.91-6.16-5.89-9.74-5.93-2.27-.04-4.43.7-6.48,2.22-2.23,1.66-2.9,3.07-2.03,4.24Z"/><path class="cls-1" d="M329.31,140.06l27.97-7.3c5.66-1.48,9.76-2.67,12.29-3.58,2.53-.91,4.94-2.05,7.22-3.42.7-.42,1.28-.68,1.71-.8,1.89-.49,3.82.09,5.8,1.74,3.26,2.68,5.49,6.36,6.71,11.04.62,2.36.6,4.35-.04,5.97-.64,1.62-1.83,2.66-3.58,3.11-1.2.31-2.2.31-2.99,0-.8-.32-1.98-1.18-3.55-2.59-2.23-2.01-4.68-3.11-7.34-3.29-2.66-.18-6.79.46-12.37,1.92-4.17,1.09-6.52,2.5-7.04,4.22-.26.92-.27,2.07,0,3.43.26,1.37,1.11,4.81,2.55,10.32.57,2.18,1.28,3.43,2.15,3.77.86.34,2.84.1,5.92-.7,1.52-.4,2.55-1,3.07-1.82.52-.81.66-2.06.42-3.74-.3-2.17-.41-3.68-.34-4.53.07-.85.39-1.66.96-2.43.59-.85,1.4-1.41,2.41-1.67,1.49-.39,2.94-.01,4.36,1.13,1.04.85,2.17,2.55,3.39,5.07,1.22,2.53,2.21,5.25,2.97,8.15,1.5,5.73,1.83,10.66,1.01,14.79-.46,2.25-1.69,3.64-3.68,4.16-1.23.32-2.17.23-2.81-.28-.64-.51-1.34-1.73-2.12-3.66-1.61-3.96-4.54-5.38-8.79-4.28-1.63.43-2.61,1.23-2.94,2.42-.33,1.19-.13,3.18.6,5.98.45,1.71,1.14,3.88,2.08,6.52.94,2.64,1.65,4.36,2.13,5.17.57,1.01,1.67,1.53,3.28,1.56,1.61.03,4.18-.42,7.7-1.34,5.44-1.42,9.36-3.19,11.75-5.3,2.39-2.12,3.98-5.23,4.77-9.35.47-2.37,1.01-4.02,1.64-4.96.63-.94,1.59-1.58,2.9-1.92,1.52-.4,2.96-.06,4.3,1,1.34,1.06,2.28,2.59,2.8,4.59.57,2.18.71,5.04.44,8.6-.27,3.56-.89,6.82-1.87,9.79-.51,1.45-.99,2.46-1.42,3.02-.44.56-1.07.95-1.91,1.17-.69.18-1.72.33-3.08.45-2.44.17-5.61.71-9.52,1.61l-46.15,12.04c-1.85.48-3.39.45-4.62-.1-1.23-.55-2.04-1.57-2.43-3.06-.27-1.05-.26-1.87.06-2.46.31-.58,1.15-1.44,2.52-2.58.97-.75,1.62-1.55,1.97-2.37.35-.83.49-1.95.43-3.37-.23-5.79-1.56-13.33-3.98-22.62-3.65-14-6.83-22.61-9.53-25.82-.55-.63-1.08-1.03-1.59-1.21-.51-.18-1.51-.28-2.99-.32-2.23-.08-3.62-1.19-4.18-3.33-.3-1.16-.23-2.28.22-3.37.45-1.09,1.2-1.92,2.25-2.51,1.33-.7,4.03-1.57,8.09-2.63Z"/><path class="cls-1" d="M433.39,123.59l28.68,3.67c5.8.74,10.05,1.17,12.74,1.26,2.69.1,5.35-.06,7.97-.48.81-.12,1.44-.16,1.88-.1,1.93.25,3.51,1.51,4.73,3.78,2.02,3.7,2.72,7.95,2.11,12.75-.31,2.42-1.07,4.26-2.27,5.52-1.2,1.26-2.69,1.78-4.48,1.55-1.23-.16-2.15-.53-2.78-1.12-.62-.59-1.4-1.83-2.33-3.73-1.32-2.7-3.18-4.63-5.58-5.79-2.4-1.16-6.47-2.1-12.2-2.84-4.28-.55-6.98-.12-8.1,1.29-.59.76-1.02,1.82-1.29,3.18-.27,1.36-.77,4.87-1.49,10.53-.29,2.23-.09,3.67.58,4.3.67.64,2.59,1.15,5.75,1.56,1.56.2,2.74.02,3.53-.54.79-.56,1.38-1.67,1.79-3.32.54-2.12,1-3.57,1.38-4.33.38-.76.98-1.4,1.8-1.9.87-.57,1.82-.79,2.86-.65,1.52.2,2.73,1.09,3.63,2.68.64,1.18,1.06,3.17,1.25,5.97.19,2.8.09,5.69-.29,8.67-.75,5.88-2.28,10.58-4.59,14.1-1.27,1.92-2.92,2.74-4.97,2.48-1.26-.16-2.1-.6-2.5-1.31-.4-.71-.6-2.11-.6-4.19-.02-4.27-2.2-6.69-6.56-7.25-1.67-.21-2.89.17-3.63,1.15-.75.98-1.31,2.9-1.67,5.77-.22,1.75-.39,4.02-.51,6.82-.11,2.8-.1,4.67.05,5.59.15,1.15.98,2.04,2.46,2.67,1.49.63,4.04,1.17,7.64,1.63,5.58.71,9.87.54,12.88-.53,3.01-1.07,5.65-3.37,7.91-6.9,1.32-2.02,2.44-3.35,3.37-3.99.93-.64,2.07-.87,3.41-.7,1.56.2,2.77,1.04,3.62,2.53.85,1.49,1.14,3.26.88,5.3-.29,2.23-1.22,4.95-2.8,8.15-1.58,3.2-3.38,5.99-5.38,8.38-1.02,1.16-1.83,1.91-2.44,2.27-.61.36-1.35.48-2.2.37-.71-.09-1.71-.33-3.03-.73-2.32-.75-5.47-1.44-9.43-2.06l-47.31-6.06c-1.9-.24-3.31-.85-4.25-1.82-.93-.97-1.3-2.22-1.11-3.74.14-1.08.46-1.83.97-2.26.51-.43,1.61-.91,3.3-1.45,1.18-.34,2.08-.83,2.71-1.47.63-.64,1.18-1.63,1.66-2.96,1.95-5.46,3.53-12.95,4.75-22.47,1.84-14.36,2.11-23.53.8-27.51-.28-.79-.62-1.36-1.03-1.72-.41-.35-1.29-.83-2.65-1.42-2.04-.9-2.92-2.45-2.64-4.65.15-1.19.64-2.2,1.47-3.04.83-.84,1.83-1.33,3.03-1.48,1.49-.15,4.32.04,8.49.58Z"/><path class="cls-1" d="M508.18,219.05l-3.47-2.09c-2.02-1.22-4.35-2.48-6.97-3.8-1.65-.82-2.78-1.41-3.39-1.78-2.15-1.29-3.61-2.84-4.36-4.65-.75-1.81-.64-3.51.32-5.12.68-1.12,1.5-1.82,2.47-2.09.97-.27,2.25-.19,3.83.23,1.48.45,2.66.45,3.54,0,.88-.45,2.08-1.65,3.6-3.58,1.71-2.26,4.76-6.81,9.16-13.66,4.4-6.85,8.67-13.71,12.8-20.59,1.62-2.7,2.49-4.62,2.62-5.78.12-1.15-.42-2.46-1.64-3.94-1.72-2.17-1.96-4.27-.75-6.29.95-1.57,2.45-2.34,4.51-2.31,2.06.03,4.45.87,7.18,2.51.9.54,1.95,1.19,3.15,1.96,2.64,1.72,4.57,2.95,5.79,3.68,4.6,2.76,9.87,5.74,15.83,8.92,1.26.67,2.81,1.56,4.64,2.66,7.36,4.42,12.67,8.76,15.94,13,4.86,6.33,7.11,13.42,6.77,21.26-.27,6.93-2.57,13.99-6.89,21.19-2.18,3.63-4.9,6.95-8.15,9.96-3.25,3.01-6.58,5.31-9.98,6.89-6.97,3.16-14.39,3.86-22.26,2.1-4.63-1.03-9.13-2.86-13.5-5.49l-5.72-3.7-4.93-3.16c-3.81-2.47-7.2-4.59-10.15-6.36ZM549.71,172.88l-22.43,37.31c-1.22,2.02-1.65,3.72-1.29,5.1.36,1.37,1.55,2.67,3.57,3.89,9.38,5.64,18.36,1.33,26.94-12.94,4.73-7.87,7.31-14.64,7.73-20.29.47-6.24-2.17-11.08-7.93-14.54-1.54-.93-2.81-1.27-3.8-1.04-.99.23-1.93,1.07-2.79,2.52Z"/><path class="cls-1" d="M637.24,223.3c4.25,5.99,7.18,10.79,8.77,14.4.74,1.63,1.02,3.17.83,4.62-.19,1.45-.81,2.54-1.85,3.28-.8.56-1.84.8-3.15.72-1.95-.09-3.2.06-3.75.45-1.1.78-2.24,2.9-3.42,6.36-.76,2.24-.78,3.86-.06,4.87.46.64,1.14,1.1,2.05,1.38.91.28,2.32.47,4.24.58,2.34.13,3.96-.12,4.85-.75.55-.39.92-.75,1.09-1.09s.48-1.3.91-2.89c.27-1.11,1-2.09,2.19-2.94,3.45-2.45,8.5,1,15.15,10.35,3.76,5.29,5.95,8.9,6.59,10.84.41,1.23.42,2.47.03,3.74-.39,1.26-1.07,2.25-2.05,2.94-1.25.89-2.47,1.18-3.66.87-1.18-.31-2.62-1.29-4.3-2.95-1.57-1.5-3.31-2.54-5.22-3.12-1.91-.58-5.91-1.28-12.01-2.1-7.45-.97-12.6-1.21-15.45-.72-2.85.48-6.39,2.22-10.61,5.22-3.55,2.52-6.74,4.99-9.57,7.41-1.76,1.48-2.84,2.68-3.26,3.62-.41.94-.5,2.33-.24,4.17.42,3.06-.24,5.2-1.98,6.44-4.16,2.95-10.6-1.72-19.33-14.01-3.58-5.04-6.48-10.16-8.69-15.35-1.87-4.38-1.58-7.43.87-9.17,1.9-1.35,4.08-1.15,6.56.59,1.85,1.31,3.4,1.84,4.65,1.6,2.8-.52,8.13-3.57,15.99-9.15,2.45-1.74,4.17-3.33,5.19-4.79,1.01-1.46,2.02-3.78,3.02-6.97,2.04-6.65,3.56-13.08,4.57-19.31.43-2.7.4-4.97-.09-6.83-.71-2.62-1.04-4.28-.97-4.97.13-1.38.8-2.5,2.02-3.37,2.05-1.45,4.62-.96,7.71,1.49,3.09,2.45,7.21,7.29,12.36,14.54Z"/><path class="cls-1" d="M241.1,606.08l-5.83-4.77c-4.11-3.32-7.16-5.7-9.13-7.15-1.79-1.25-3.05-2.17-3.77-2.77-1.76-1.46-2.79-3.07-3.08-4.83-.27-1.73.12-3.22,1.15-4.46.67-.81,1.39-1.29,2.14-1.44.76-.15,2.27-.12,4.52.1,1.32.12,2.64-.3,3.98-1.27,1.34-.96,3.87-3.31,7.6-7.03,5.77-5.83,12.48-13.35,20.13-22.55,2.8-3.37,4.44-5.8,4.92-7.28.47-1.48.19-3.27-.85-5.35-1.23-2.39-1.2-4.36.09-5.92,1.05-1.27,2.49-1.83,4.3-1.7,1.81.14,3.61.95,5.4,2.44.98.81,2.2,1.9,3.66,3.26,2.44,2.22,5.13,4.56,8.08,7,2.16,1.8,6.49,5.25,12.98,10.35,2.04,1.6,3.86,3.06,5.48,4.41,3.84,3.19,6.67,6.07,8.51,8.64,1.83,2.57,3.01,5.31,3.51,8.22.84,4.74-.41,9.12-3.74,13.13-1.65,1.99-3.68,3.58-6.09,4.77-2.41,1.19-4.78,1.77-7.13,1.72-1.68-.03-2.8.28-3.35.95-.6.72-.5,1.83.31,3.33,1.57,2.92,2.39,6.3,2.46,10.16.05,3.99-1.39,7.74-4.31,11.26-3.45,4.15-8.12,6.69-14,7.6-7.77,1.2-15.58-1.46-23.42-7.98-1.07-.89-3.63-3.14-7.69-6.76-3.69-3.31-5.95-5.33-6.79-6.08ZM262.38,586.54l-3.41,4.11c-3.14,3.78-4.95,6.51-5.43,8.21-.48,1.69.11,3.24,1.79,4.63,4.38,3.64,8.71,2.9,12.97-2.24,5.32-6.4,5.53-11.64.63-15.71-1.27-1.05-2.38-1.51-3.32-1.37-.95.14-2.02.93-3.22,2.37ZM283.08,561.62l-7.41,8.91c-1.17,1.41-1.82,2.56-1.94,3.43-.12.88.27,1.69,1.16,2.43,2.13,1.77,4.25,2.42,6.35,1.95,2.1-.47,4.31-2.11,6.64-4.91,2.25-2.71,3.48-5.24,3.67-7.59.2-2.35-.66-4.31-2.56-5.89-1.01-.84-1.94-1.14-2.8-.9-.86.24-1.9,1.09-3.12,2.56Z"/><path class="cls-1" d="M354.75,584.87c3.99,1.54,7.61,3.35,10.87,5.42,4.39,2.79,5.99,5.72,4.8,8.79-.39,1.01-.92,1.68-1.59,2.01-.67.32-2.16.6-4.46.84-1.92.18-3.66,1.54-5.23,4.07-1.56,2.53-3.88,7.75-6.94,15.65-5.17,13.36-8.05,21.75-8.61,25.19-.15,1.11-.07,2.03.22,2.77.3.74.95,1.67,1.97,2.78,1.9,1.94,2.47,3.91,1.69,5.9-1.08,2.8-3.96,3.89-8.63,3.29-5.05-.67-10.91-2.3-17.59-4.88-11.4-4.42-16.26-8.79-14.58-13.13.61-1.57,2.3-2.61,5.06-3.11,2.12-.38,3.69-1.43,4.71-3.12,2.21-3.73,5.82-12.06,10.83-25,3.47-8.95,5.23-14.86,5.3-17.73.06-1.62-.6-3.37-2.01-5.24-1.07-1.5-1.73-2.66-1.97-3.48-.25-.82-.18-1.72.2-2.7.58-1.5,1.77-2.42,3.57-2.75,1.8-.33,4.67-.13,8.61.59,4.71.82,9.3,2.09,13.78,3.83Z"/><path class="cls-1" d="M399.84,597.5l29.61,1.45c3.19.04,6.11-.24,8.77-.86,1.14-.24,2.14-.35,3-.3,3.03.15,5.87,2.54,8.52,7.18,2.64,4.64,3.85,9.33,3.62,14.09-.16,3.26-1.27,5.59-3.33,6.99-1.55,1.05-3.38,1.52-5.48,1.42-1.99-.1-3.68-.73-5.09-1.91-1.41-1.18-2.76-3.07-4.06-5.69-1.12-2.38-2.02-3.95-2.7-4.69-.68-.75-1.52-1.14-2.53-1.19-1.39-.07-2.41.46-3.06,1.59-.66,1.13-1.05,3.03-1.18,5.69l-1.55,31.46c-.16,3.22.06,5.58.67,7.07s1.82,2.68,3.65,3.56c1.98.96,3.32,1.84,4.01,2.65.69.8,1.01,1.88.94,3.23-.13,2.7-2.06,4.61-5.77,5.74-3.72,1.13-9.36,1.51-16.92,1.14-9.29-.46-16.14-1.56-20.56-3.32-3.72-1.46-5.51-3.61-5.37-6.46.08-1.54.81-2.7,2.2-3.5.35-.17,1.7-.55,4.05-1.15,1.44-.34,2.47-1.08,3.07-2.21.6-1.13,1.15-3.34,1.65-6.62.44-2.91.96-7.62,1.54-14.14.58-6.52.99-12.18,1.23-16.97.17-3.37.02-5.78-.43-7.23-.46-1.45-1.28-2.2-2.48-2.26-1.46-.07-2.94.91-4.42,2.94-2.7,3.7-4.88,6.12-6.55,7.28-1.98,1.37-3.87,2.01-5.67,1.92-2.02-.1-3.65-.94-4.89-2.52-1.24-1.58-1.8-3.55-1.68-5.91.11-2.32.76-4.85,1.95-7.59,1.19-2.74,2.72-5.24,4.59-7.52,3.03-3.68,5.94-5.45,8.71-5.32.75.04,1.6.19,2.57.46,2,.51,3.65.87,4.93,1.09,1.28.21,2.77.36,4.45.44Z"/><path class="cls-1" d="M465.31,595.86l27.28-9.56c5.52-1.93,9.5-3.46,11.95-4.58,2.45-1.12,4.75-2.45,6.91-4,.67-.47,1.22-.78,1.64-.93,1.84-.64,3.81-.22,5.92,1.26,3.46,2.4,6,5.88,7.6,10.45.81,2.3.96,4.28.45,5.95-.51,1.67-1.61,2.8-3.31,3.39-1.17.41-2.16.49-2.98.24-.82-.25-2.07-1.01-3.75-2.29-2.39-1.83-4.92-2.72-7.58-2.68-2.67.04-6.73,1.02-12.18,2.93-4.07,1.43-6.29,3.02-6.67,4.78-.19.94-.1,2.08.28,3.42.37,1.34,1.5,4.7,3.38,10.08.74,2.12,1.56,3.32,2.45,3.58.89.27,2.84-.13,5.84-1.18,1.49-.52,2.46-1.21,2.91-2.06.46-.85.49-2.11.11-3.76-.47-2.14-.71-3.64-.71-4.49,0-.85.25-1.69.76-2.5.52-.9,1.28-1.52,2.27-1.87,1.45-.51,2.93-.25,4.44.77,1.1.77,2.37,2.36,3.79,4.78,1.42,2.42,2.63,5.05,3.62,7.88,1.96,5.59,2.7,10.48,2.22,14.66-.27,2.28-1.38,3.76-3.33,4.45-1.2.42-2.14.4-2.82-.06-.68-.46-1.48-1.62-2.41-3.48-1.93-3.81-4.97-4.99-9.11-3.54-1.59.56-2.5,1.44-2.73,2.66-.23,1.21.13,3.18,1.09,5.91.58,1.66,1.45,3.77,2.61,6.33,1.15,2.56,2,4.22,2.55,4.98.65.96,1.79,1.39,3.4,1.28,1.61-.11,4.13-.76,7.57-1.97,5.31-1.86,9.07-3.94,11.28-6.25,2.21-2.3,3.54-5.54,3.99-9.71.27-2.4.68-4.09,1.23-5.08s1.46-1.7,2.73-2.15c1.49-.52,2.94-.31,4.37.64s2.48,2.4,3.16,4.34c.74,2.12,1.13,4.97,1.15,8.54.02,3.57-.33,6.87-1.06,9.91-.39,1.49-.78,2.53-1.17,3.12-.39.59-.99,1.03-1.8,1.32-.67.24-1.68.47-3.03.71-2.41.37-5.53,1.16-9.36,2.38l-45.01,15.78c-1.8.63-3.34.72-4.61.28-1.27-.45-2.16-1.4-2.67-2.85-.36-1.03-.41-1.84-.14-2.45.26-.61,1.03-1.53,2.31-2.77.9-.83,1.49-1.67,1.77-2.53s.33-1.98.15-3.39c-.7-5.75-2.64-13.16-5.82-22.22-4.79-13.66-8.66-21.98-11.61-24.96-.6-.58-1.16-.94-1.69-1.08s-1.53-.16-3.01-.08c-2.23.11-3.71-.89-4.44-2.97-.4-1.13-.41-2.26-.05-3.38.36-1.12,1.04-2.01,2.04-2.68,1.27-.8,3.88-1.9,7.85-3.29Z"/><path class="cls-1" d="M551.97,549.7c2.93-2.52,7.39-5.1,13.38-7.73.72-.32,1.24-.63,1.58-.92.28-.24.92-1.23,1.9-2.97.31-.56.72-1.06,1.23-1.5,1.9-1.64,5.21-1.86,9.92-.67,4.71,1.19,8.24,3.15,10.59,5.88,1.37,1.59,2.05,3.34,2.04,5.26-.01,1.91-.7,3.46-2.06,4.63-1.14.98-2.26,1.55-3.36,1.7-1.1.16-3.83.15-8.17-.01-6.15-.25-10.87,1.05-14.17,3.89-1.59,1.37-2.53,2.85-2.82,4.44-.29,1.59.1,3.01,1.18,4.26,2.13,2.47,5.91,2.46,11.33-.03,7.37-3.33,12.23-5.31,14.56-5.93,10.28-2.71,18.37-.65,24.26,6.2,5.21,6.05,7,13.12,5.35,21.22-1.68,8.28-6.6,15.93-14.76,22.95-3.64,3.13-7.85,6-12.63,8.61-4.78,2.61-8.57,4.1-11.36,4.48-2.15.27-5.08-.66-8.81-2.77-3.72-2.11-6.83-4.62-9.33-7.52-1.2-1.39-1.82-2.69-1.86-3.89-.07-1.52.43-2.75,1.51-3.68,1.08-.93,2.59-1.27,4.54-1.02,1.14.11,4.27.9,9.39,2.38,2.42.69,5.23.57,8.42-.35,3.19-.92,6.01-2.43,8.45-4.53,2.1-1.81,3.47-3.67,4.11-5.58.63-1.91.43-3.47-.63-4.69-.98-1.14-2.33-1.68-4.07-1.62-1.73.06-4.05.72-6.97,1.99-5.16,2.22-9.27,3.71-12.32,4.48-3.05.77-6.19,1.14-9.44,1.11-7.91-.11-14.05-2.7-18.4-7.76-2.15-2.5-3.67-5.44-4.55-8.81-.88-3.38-1-6.85-.36-10.42,1.32-8.12,5.42-15.13,12.3-21.06Z"/></svg>